<svg width="35" height="61" viewBox="0 0 35 61" fill="none" xmlns="http://www.w3.org/2000/svg">
<path d="M0.950297 32.7437L27.4621 59.4439C28.0753 60.062 28.8938 60.4025 29.7666 60.4025C30.6394 60.4025 31.458 60.062 32.0711 59.4439L34.0236 57.4781C35.294 56.1971 35.294 54.1152 34.0236 52.8362L11.761 30.4149L34.0483 7.96875C34.6614 7.3507 35 6.5268 35 5.64827C35 4.76877 34.6614 3.94487 34.0483 3.32634L32.0959 1.36099C31.4822 0.742947 30.6641 0.402464 29.7913 0.402464C28.9185 0.402464 28.1 0.742947 27.4868 1.36099L0.950297 28.0857C0.335659 28.7056 -0.00193115 29.5334 6.16228e-06 30.4134C-0.00193131 31.2968 0.335659 32.1242 0.950297 32.7437Z" fill="black"/>
</svg>
