<svg width="35" height="60" viewBox="0 0 35 60" fill="none" xmlns="http://www.w3.org/2000/svg">
<path d="M34.0497 27.6588L7.53792 0.958529C6.92473 0.340485 6.10618 0 5.23339 0C4.36059 0 3.54204 0.340485 2.92886 0.958529L0.976447 2.92437C-0.293999 4.20533 -0.293999 6.28727 0.976447 7.56628L23.239 29.9876L0.951745 52.4337C0.33856 53.0518 0 53.8757 0 54.7542C0 55.6337 0.33856 56.4576 0.951745 57.0761L2.90415 59.0415C3.51782 59.6595 4.33589 60 5.20868 60C6.08148 60 6.90003 59.6595 7.51321 59.0415L34.0497 32.3168C34.6643 31.6968 35.0019 30.869 35 29.989C35.0019 29.1056 34.6643 28.2783 34.0497 27.6588Z" fill="black"/>
</svg>
