<svg width="20" height="21" viewBox="0 0 20 21" fill="none" xmlns="http://www.w3.org/2000/svg">
<path d="M11.7969 0.721924C7.27368 0.721924 3.59375 4.40185 3.59375 8.92505C3.59375 10.915 4.30602 12.7418 5.48903 14.1638L0.230708 19.3864C-0.0754251 19.6904 -0.0771048 20.1851 0.226919 20.4912C0.379653 20.645 0.580434 20.7219 0.781254 20.7219C0.980278 20.7219 1.17938 20.6463 1.33176 20.495L6.59727 15.2653C8.0136 16.4289 9.82512 17.1282 11.7969 17.1282C13.2041 17.1282 14.5928 16.7656 15.8127 16.0795C16.1888 15.868 16.3222 15.3917 16.1106 15.0156C15.8991 14.6395 15.4228 14.5061 15.0467 14.7176C14.0602 15.2724 12.9364 15.5657 11.7969 15.5657C8.13524 15.5657 5.15625 12.5867 5.15625 8.92505C5.15625 5.26341 8.13524 2.28442 11.7969 2.28442C15.4585 2.28442 18.4375 5.26341 18.4375 8.92505C18.4375 10.0786 18.1374 11.2145 17.5696 12.2099C17.3559 12.5847 17.4864 13.0618 17.8612 13.2756C18.236 13.4893 18.7131 13.3588 18.9269 12.984C19.6289 11.7532 20 10.3496 20 8.92505C20 4.40185 16.3201 0.721924 11.7969 0.721924Z" fill="black"/>
</svg>
