<svg width="837" height="587" viewBox="0 0 837 587" fill="none" xmlns="http://www.w3.org/2000/svg">
<path d="M261.768 384.8C120.824 418.93 28.5292 533.229 0 586.112H812.331C812.331 586.112 894 129.612 884.5 51.6118C875 -26.3883 810.026 -2.93637 746.263 36.8376C682.5 76.6116 583.061 180.516 519.031 254.814C455 329.112 402.712 350.671 261.768 384.8Z" fill="#240B36"/>
<path d="M298.768 384.8C157.824 418.93 65.5292 533.229 37 586.112H849.331C849.331 586.112 931 129.612 921.5 51.6118C912 -26.3883 847.026 -2.93637 783.263 36.8376C719.5 76.6116 620.061 180.516 556.031 254.814C492 329.112 439.712 350.671 298.768 384.8Z" fill="#C31432"/>
</svg>
